<svg id="Layer_1" data-name="Layer 1" xmlns="http://www.w3.org/2000/svg" width="1in" height="1in" viewBox="0 0 72 72"><title>birch-haven-logo</title><circle cx="36" cy="36" r="35.9" fill="#6ecde4"/><path d="M54.9,44.4a5.2,5.2,0,0,0-3.2,1.1L29.3,19.3a5.2,5.2,0,0,0,1.5-3.7,5.5,5.5,0,0,0-5.5-5.4,5.4,5.4,0,0,0-5.4,5.4,6.4,6.4,0,0,0,.3,2,5.2,5.2,0,0,0-3.1-1,5.5,5.5,0,0,0,0,11,6.2,6.2,0,0,0,3-.9L42.6,52.8a5.2,5.2,0,0,0-1.4,3.6,5.5,5.5,0,0,0,5.5,5.4,5.4,5.4,0,0,0,5.4-5.4,6.4,6.4,0,0,0-.3-2,5.2,5.2,0,0,0,3.1,1,5.5,5.5,0,0,0,0-11Z" fill="#fff"/></svg>